<svg xmlns="http://www.w3.org/2000/svg" viewBox="0 0 900 450" width="100%" height="100%" style="background: #080c14; border-radius: 16px; font-family: -apple-system, BlinkMacSystemFont, 'Segoe UI', Roboto, Helvetica, Arial, sans-serif;">
  <defs>
    <linearGradient id="bgGrad2" x1="0%" y1="0%" x2="100%" y2="100%">
      <stop offset="0%" stop-color="#080c14"/>
      <stop offset="50%" stop-color="#0d1527"/>
      <stop offset="100%" stop-color="#080c14"/>
    </linearGradient>

    <linearGradient id="cardGrad" x1="0%" y1="0%" x2="100%" y2="100%">
      <stop offset="0%" stop-color="rgba(30, 41, 59, 0.75)"/>
      <stop offset="100%" stop-color="rgba(15, 23, 42, 0.85)"/>
    </linearGradient>

    <pattern id="grid2" width="20" height="20" patternUnits="userSpaceOnUse">
      <path d="M 20 0 L 0 0 0 20" fill="none" stroke="rgba(56, 189, 248, 0.04)" stroke-width="1"/>
    </pattern>
  </defs>

  <style>
    @keyframes bar1Anim {
      0% { width: 0px; }
      25%, 100% { width: 92px; }
    }
    @keyframes bar2Anim {
      0%, 25% { width: 0px; }
      50%, 100% { width: 92px; }
    }
    @keyframes bar3Anim {
      0%, 50% { width: 0px; }
      75%, 100% { width: 92px; }
    }
    @keyframes bar4Anim {
      0%, 75% { width: 0px; }
      100% { width: 92px; }
    }

    @keyframes slide1Fade {
      0%, 22% { opacity: 1; transform: translateY(0px); }
      25%, 98% { opacity: 0; transform: translateY(8px); }
      100% { opacity: 1; transform: translateY(0px); }
    }
    @keyframes slide2Fade {
      0%, 24% { opacity: 0; transform: translateY(-8px); }
      26%, 47% { opacity: 1; transform: translateY(0px); }
      50%, 100% { opacity: 0; transform: translateY(8px); }
    }
    @keyframes slide3Fade {
      0%, 49% { opacity: 0; transform: translateY(-8px); }
      51%, 72% { opacity: 1; transform: translateY(0px); }
      75%, 100% { opacity: 0; transform: translateY(8px); }
    }
    @keyframes slide4Fade {
      0%, 74% { opacity: 0; transform: translateY(-8px); }
      76%, 97% { opacity: 1; transform: translateY(0px); }
      100% { opacity: 0; transform: translateY(8px); }
    }

    @keyframes steamFloat {
      0%, 100% { transform: translateY(0) scaleY(1); opacity: 0.3; }
      50% { transform: translateY(-8px) scaleY(1.3); opacity: 0.8; }
    }

    @keyframes eqBarStory1 { 0%, 100% { height: 8px; } 50% { height: 26px; } }
    @keyframes eqBarStory2 { 0%, 100% { height: 24px; } 50% { height: 12px; } }
    @keyframes eqBarStory3 { 0%, 100% { height: 14px; } 50% { height: 32px; } }
    @keyframes eqBarStory4 { 0%, 100% { height: 28px; } 50% { height: 10px; } }

    .story-bar-1 { animation: bar1Anim 12s infinite linear; }
    .story-bar-2 { animation: bar2Anim 12s infinite linear; }
    .story-bar-3 { animation: bar3Anim 12s infinite linear; }
    .story-bar-4 { animation: bar4Anim 12s infinite linear; }

    .slide-1 { animation: slide1Fade 12s infinite; }
    .slide-2 { animation: slide2Fade 12s infinite; }
    .slide-3 { animation: slide3Fade 12s infinite; }
    .slide-4 { animation: slide4Fade 12s infinite; }

    .steam-anim { animation: steamFloat 2.5s infinite ease-in-out; }
  </style>

  <rect width="900" height="450" rx="16" fill="url(#bgGrad2)" />
  <rect width="900" height="450" rx="16" fill="url(#grid2)" />
  <rect width="900" height="450" rx="16" fill="none" stroke="rgba(56, 189, 248, 0.2)" stroke-width="1.5" />

  <!-- ==================== LEFT PANEL: WHAT I BUILD ==================== -->
  <g transform="translate(25, 25)">
    <rect width="415" height="400" rx="14" fill="rgba(15, 23, 42, 0.65)" stroke="rgba(56, 189, 248, 0.25)" stroke-width="1.2" />
    
    <!-- Title Bar -->
    <rect width="415" height="42" rx="14" fill="rgba(30, 41, 59, 0.7)" />
    <circle cx="20" cy="21" r="5" fill="#ef4444" />
    <circle cx="36" cy="21" r="5" fill="#f59e0b" />
    <circle cx="52" cy="21" r="5" fill="#10b981" />
    <text x="75" y="26" fill="#38bdf8" font-size="13" font-family="monospace" font-weight="700">WHAT I BUILD // CORE ARCHITECTURE</text>

    <!-- Card 1: Retail POS Platform -->
    <g transform="translate(15, 55)">
      <rect width="385" height="74" rx="8" fill="url(#cardGrad)" stroke="rgba(56, 189, 248, 0.2)" stroke-width="1" />
      <rect x="0" y="0" width="4" height="74" rx="2" fill="#38bdf8" />
      <text x="18" y="24" fill="#38bdf8" font-size="13.5" font-weight="700">🏪 Digital Retail &amp; Cloud POS Systems</text>
      <text x="18" y="44" fill="#cbd5e1" font-size="11.5">Production POS billing, GST Hindi words invoice, dynamic UPI QR,</text>
      <text x="18" y="60" fill="#94a3b8" font-size="11">real-time stock limits &amp; 1-click WhatsApp customer ordering.</text>
    </g>

    <!-- Card 2: High-Performance React 19 Apps -->
    <g transform="translate(15, 140)">
      <rect width="385" height="74" rx="8" fill="url(#cardGrad)" stroke="rgba(129, 140, 248, 0.2)" stroke-width="1" />
      <rect x="0" y="0" width="4" height="74" rx="2" fill="#818cf8" />
      <text x="18" y="24" fill="#818cf8" font-size="13.5" font-weight="700">⚛️ High-Performance Web Applications</text>
      <text x="18" y="44" fill="#cbd5e1" font-size="11.5">Engineered with React 19, TypeScript, Tailwind v4 &amp; Vite.</text>
      <text x="18" y="60" fill="#94a3b8" font-size="11">Fluid micro-interactions, silky Framer Motion &amp; zero jank.</text>
    </g>

    <!-- Card 3: AI-Integrated Dashboards -->
    <g transform="translate(15, 225)">
      <rect width="385" height="74" rx="8" fill="url(#cardGrad)" stroke="rgba(245, 158, 11, 0.2)" stroke-width="1" />
      <rect x="0" y="0" width="4" height="74" rx="2" fill="#f59e0b" />
      <text x="18" y="24" fill="#f59e0b" font-size="13.5" font-weight="700">🤖 AI-Integrated Business Hubs</text>
      <text x="18" y="44" fill="#cbd5e1" font-size="11.5">Google Gemini AI APIs integrated for smart inventory forecasting,</text>
      <text x="18" y="60" fill="#94a3b8" font-size="11">automated invoice parsing, and intelligent real-time analytics.</text>
    </g>

    <!-- Card 4: Hardened Backend & Cloud -->
    <g transform="translate(15, 310)">
      <rect width="385" height="74" rx="8" fill="url(#cardGrad)" stroke="rgba(168, 85, 247, 0.2)" stroke-width="1" />
      <rect x="0" y="0" width="4" height="74" rx="2" fill="#a855f7" />
      <text x="18" y="24" fill="#c084fc" font-size="13.5" font-weight="700">🛡️ Hardened Cloud Backends &amp; Security</text>
      <text x="18" y="44" fill="#cbd5e1" font-size="11.5">Node.js, Express, Firebase Realtime Cloud Sync &amp; Auth.</text>
      <text x="18" y="60" fill="#94a3b8" font-size="11">Linux system administration, network hardening &amp; defense.</text>
    </g>
  </g>

  <!-- ==================== RIGHT PANEL: HOBBIES CAROUSEL ==================== -->
  <g transform="translate(460, 25)">
    <rect width="415" height="400" rx="14" fill="rgba(15, 23, 42, 0.65)" stroke="rgba(168, 85, 247, 0.25)" stroke-width="1.2" />

    <!-- Title Bar with Auto-Playing Status -->
    <rect width="415" height="42" rx="14" fill="rgba(30, 41, 59, 0.7)" />
    <circle cx="20" cy="21" r="5" fill="#a855f7" />
    <text x="35" y="26" fill="#f8fafc" font-size="13" font-weight="700">HOBBIES &amp; OBSESSIONS</text>
    <rect x="295" y="11" width="105" height="22" rx="11" fill="rgba(168, 85, 247, 0.2)" stroke="#a855f7" stroke-width="0.8" />
    <circle cx="307" cy="22" r="3.5" fill="#c084fc" />
    <text x="316" y="26" fill="#c084fc" font-size="9.5" font-family="monospace" font-weight="700">STORY LIVE</text>

    <!-- Story Progress Bars (4 Bars) -->
    <g transform="translate(15, 52)">
      <rect x="0" y="0" width="92" height="4" rx="2" fill="rgba(255, 255, 255, 0.15)" />
      <rect class="story-bar-1" x="0" y="0" width="0" height="4" rx="2" fill="#38bdf8" />
      
      <rect x="98" y="0" width="92" height="4" rx="2" fill="rgba(255, 255, 255, 0.15)" />
      <rect class="story-bar-2" x="98" y="0" width="0" height="4" rx="2" fill="#10b981" />
      
      <rect x="196" y="0" width="92" height="4" rx="2" fill="rgba(255, 255, 255, 0.15)" />
      <rect class="story-bar-3" x="196" y="0" width="0" height="4" rx="2" fill="#f59e0b" />
      
      <rect x="294" y="0" width="92" height="4" rx="2" fill="rgba(255, 255, 255, 0.15)" />
      <rect class="story-bar-4" x="294" y="0" width="0" height="4" rx="2" fill="#ec4899" />
    </g>

    <!-- Slide 1: Coffee & Night Coding -->
    <g class="slide-1" transform="translate(15, 75)">
      <rect width="385" height="190" rx="12" fill="rgba(30, 41, 59, 0.6)" stroke="rgba(56, 189, 248, 0.2)" stroke-width="1" />
      
      <g transform="translate(145, 30)">
        <path class="steam-anim" d="M 40 18 Q 36 6 42 -4 Q 48 -14 44 -24" fill="none" stroke="#38bdf8" stroke-width="2" stroke-linecap="round" opacity="0.6"/>
        <path class="steam-anim" d="M 52 14 Q 56 4 50 -6 Q 44 -16 48 -26" fill="none" stroke="#93c5fd" stroke-width="2" stroke-linecap="round" opacity="0.4" style="animation-delay: 0.6s;"/>
        <path class="steam-anim" d="M 64 18 Q 68 8 62 -2 Q 56 -12 60 -22" fill="none" stroke="#38bdf8" stroke-width="2" stroke-linecap="round" opacity="0.5" style="animation-delay: 1.2s;"/>
        
        <rect x="25" y="25" width="55" height="50" rx="6" fill="#1e293b" stroke="#38bdf8" stroke-width="2.5" />
        <path d="M 80 35 C 95 35, 95 65, 80 65" fill="none" stroke="#38bdf8" stroke-width="2.5" />
        <ellipse cx="52.5" cy="28" rx="22" ry="5" fill="#78350f" />
        <text x="52.5" y="55" fill="#38bdf8" font-size="12" font-family="monospace" font-weight="bold" text-anchor="middle">&lt;dev/&gt;</text>
        <ellipse cx="52.5" cy="77" rx="35" ry="6" fill="none" stroke="#38bdf8" stroke-width="2" />
      </g>

      <text x="20" y="145" fill="#38bdf8" font-size="15" font-weight="800">☕ Specialty Dark Roast &amp; Late-Night Coding</text>
      <text x="20" y="168" fill="#cbd5e1" font-size="12">Fueling zero-bug releases between 11 PM &amp; 3 AM.</text>

      <g transform="translate(0, 205)">
        <rect width="385" height="105" rx="10" fill="rgba(15, 23, 42, 0.8)" stroke="rgba(56, 189, 248, 0.15)" stroke-width="1" />
        <text x="18" y="28" fill="#f8fafc" font-size="12.5" font-weight="600">The Ritual:</text>
        <text x="18" y="50" fill="#94a3b8" font-size="11.5">Freshly ground dark roast pour-over + noise-canceling cans</text>
        <text x="18" y="68" fill="#94a3b8" font-size="11.5">+ deep flow state solving intricate React state trees.</text>
        <rect x="18" y="78" width="95" height="20" rx="10" fill="rgba(56, 189, 248, 0.15)" />
        <text x="65" y="92" fill="#38bdf8" font-size="10" font-weight="700" text-anchor="middle">#DarkRoast</text>
        <rect x="120" y="78" width="115" height="20" rx="10" fill="rgba(56, 189, 248, 0.15)" />
        <text x="177" y="92" fill="#38bdf8" font-size="10" font-weight="700" text-anchor="middle">#MidnightCoder</text>
      </g>
    </g>

    <!-- Slide 2: Cybersecurity & CTFs -->
    <g class="slide-2" transform="translate(15, 75)">
      <rect width="385" height="190" rx="12" fill="rgba(30, 41, 59, 0.6)" stroke="rgba(16, 185, 129, 0.2)" stroke-width="1" />
      
      <g transform="translate(150, 25)">
        <path d="M 45 10 L 80 25 L 80 65 C 80 90, 45 105, 45 105 C 45 105, 10 90, 10 65 L 10 25 Z" fill="#064e3b" stroke="#10b981" stroke-width="2.5" />
        <circle cx="45" cy="50" r="8" fill="#10b981" />
        <path d="M 45 54 L 45 66" stroke="#064e3b" stroke-width="3" stroke-linecap="round" />
        <path d="M 22 35 L 35 35 M 55 35 L 68 35 M 25 70 L 38 70 M 52 70 L 65 70" stroke="#34d399" stroke-width="1.5" stroke-dasharray="2 2" />
      </g>

      <text x="20" y="145" fill="#34d399" font-size="15" font-weight="800">🛡️ Cybersecurity Labs &amp; CTF Hunting</text>
      <text x="20" y="168" fill="#cbd5e1" font-size="12">Ethical hacking, Kali Linux &amp; network packet analysis.</text>

      <g transform="translate(0, 205)">
        <rect width="385" height="105" rx="10" fill="rgba(15, 23, 42, 0.8)" stroke="rgba(16, 185, 129, 0.15)" stroke-width="1" />
        <text x="18" y="28" fill="#f8fafc" font-size="12.5" font-weight="600">The Focus:</text>
        <text x="18" y="50" fill="#94a3b8" font-size="11.5">Penetration testing web targets, OWASP Top 10 vulnerabilities,</text>
        <text x="18" y="68" fill="#94a3b8" font-size="11.5">and building bulletproof software that never leaks data.</text>
        <rect x="18" y="78" width="95" height="20" rx="10" fill="rgba(16, 185, 129, 0.15)" />
        <text x="65" y="92" fill="#34d399" font-size="10" font-weight="700" text-anchor="middle">#KaliLinux</text>
        <rect x="120" y="78" width="115" height="20" rx="10" fill="rgba(16, 185, 129, 0.15)" />
        <text x="177" y="92" fill="#34d399" font-size="10" font-weight="700" text-anchor="middle">#InfosecLabs</text>
      </g>
    </g>

    <!-- Slide 3: Indie Gaming & Sci-Fi -->
    <g class="slide-3" transform="translate(15, 75)">
      <rect width="385" height="190" rx="12" fill="rgba(30, 41, 59, 0.6)" stroke="rgba(245, 158, 11, 0.2)" stroke-width="1" />
      
      <g transform="translate(140, 35)">
        <rect x="10" y="15" width="85" height="52" rx="16" fill="#1e293b" stroke="#f59e0b" stroke-width="2.5" />
        <path d="M 28 32 H 36 V 24 H 42 V 32 H 50 V 38 H 42 V 46 H 36 V 38 H 28 Z" fill="#475569" stroke="#f59e0b" stroke-width="1" />
        <circle cx="72" cy="30" r="4.5" fill="#ef4444" />
        <circle cx="82" cy="40" r="4.5" fill="#38bdf8" />
        <circle cx="62" cy="40" r="4.5" fill="#10b981" />
        <circle cx="72" cy="50" r="4.5" fill="#f59e0b" />
      </g>

      <text x="20" y="145" fill="#fbbf24" font-size="15" font-weight="800">🎮 Indie Games &amp; Cyberpunk Worlds</text>
      <text x="20" y="168" fill="#cbd5e1" font-size="12">Admiring game physics, worldbuilding &amp; UI mechanics.</text>

      <g transform="translate(0, 205)">
        <rect width="385" height="105" rx="10" fill="rgba(15, 23, 42, 0.8)" stroke="rgba(245, 158, 11, 0.15)" stroke-width="1" />
        <text x="18" y="28" fill="#f8fafc" font-size="12.5" font-weight="600">The Inspiration:</text>
        <text x="18" y="50" fill="#94a3b8" font-size="11.5">Exploring immersive game UI, shaders, cyberpunk aesthetics,</text>
        <text x="18" y="68" fill="#94a3b8" font-size="11.5">and translating high-framerate fluid animations to the web.</text>
        <rect x="18" y="78" width="95" height="20" rx="10" fill="rgba(245, 158, 11, 0.15)" />
        <text x="65" y="92" fill="#fbbf24" font-size="10" font-weight="700" text-anchor="middle">#Cyberpunk</text>
        <rect x="120" y="78" width="115" height="20" rx="10" fill="rgba(245, 158, 11, 0.15)" />
        <text x="177" y="92" fill="#fbbf24" font-size="10" font-weight="700" text-anchor="middle">#CreativeTech</text>
      </g>
    </g>

    <!-- Slide 4: Lo-Fi Beats & System Design -->
    <g class="slide-4" transform="translate(15, 75)">
      <rect width="385" height="190" rx="12" fill="rgba(30, 41, 59, 0.6)" stroke="rgba(236, 72, 153, 0.2)" stroke-width="1" />
      
      <g transform="translate(135, 35)">
        <rect x="10" y="20" width="5" height="30" rx="2" fill="#ec4899" style="animation: eqBarStory1 0.8s infinite alternate;" />
        <rect x="22" y="20" width="5" height="30" rx="2" fill="#a855f7" style="animation: eqBarStory2 0.6s infinite alternate;" />
        <rect x="34" y="20" width="5" height="30" rx="2" fill="#38bdf8" style="animation: eqBarStory3 0.7s infinite alternate;" />
        <rect x="46" y="20" width="5" height="30" rx="2" fill="#10b981" style="animation: eqBarStory4 0.9s infinite alternate;" />
        <rect x="58" y="20" width="5" height="30" rx="2" fill="#f59e0b" style="animation: eqBarStory1 0.75s infinite alternate;" />
        <rect x="70" y="20" width="5" height="30" rx="2" fill="#ec4899" style="animation: eqBarStory3 0.65s infinite alternate;" />
        <rect x="82" y="20" width="5" height="30" rx="2" fill="#38bdf8" style="animation: eqBarStory2 0.85s infinite alternate;" />
      </g>

      <text x="20" y="145" fill="#f472b6" font-size="15" font-weight="800">🎧 Lo-Fi Beats &amp; System Architecture</text>
      <text x="20" y="168" fill="#cbd5e1" font-size="12">Sketching distributed systems to chilled 70 BPM beats.</text>

      <g transform="translate(0, 205)">
        <rect width="385" height="105" rx="10" fill="rgba(15, 23, 42, 0.8)" stroke="rgba(236, 72, 153, 0.15)" stroke-width="1" />
        <text x="18" y="28" fill="#f8fafc" font-size="12.5" font-weight="600">The Vibe:</text>
        <text x="18" y="50" fill="#94a3b8" font-size="11.5">Designing microservice boundaries, caching strategies, and</text>
        <text x="18" y="68" fill="#94a3b8" font-size="11.5">scalable cloud pipelines with smooth ambient frequencies.</text>
        <rect x="18" y="78" width="95" height="20" rx="10" fill="rgba(236, 72, 153, 0.15)" />
        <text x="65" y="92" fill="#f472b6" font-size="10" font-weight="700" text-anchor="middle">#LoFiVibes</text>
        <rect x="120" y="78" width="115" height="20" rx="10" fill="rgba(236, 72, 153, 0.15)" />
        <text x="177" y="92" fill="#f472b6" font-size="10" font-weight="700" text-anchor="middle">#SystemDesign</text>
      </g>
    </g>

  </g>
</svg>